%TF.GenerationSoftware,KiCad,Pcbnew,(6.0.7)*%
%TF.CreationDate,2023-04-18T19:04:57+08:00*%
%TF.ProjectId,stepper_with_DRV8825_controller_board_V3,73746570-7065-4725-9f77-6974685f4452,rev?*%
%TF.SameCoordinates,PX4a62f80PY848f8c0*%
%TF.FileFunction,Paste,Top*%
%TF.FilePolarity,Positive*%
%FSLAX46Y46*%
G04 Gerber Fmt 4.6, Leading zero omitted, Abs format (unit mm)*
G04 Created by KiCad (PCBNEW (6.0.7)) date 2023-04-18 19:04:57*
%MOMM*%
%LPD*%
G01*
G04 APERTURE LIST*
G04 Aperture macros list*
%AMRoundRect*
0 Rectangle with rounded corners*
0 $1 Rounding radius*
0 $2 $3 $4 $5 $6 $7 $8 $9 X,Y pos of 4 corners*
0 Add a 4 corners polygon primitive as box body*
4,1,4,$2,$3,$4,$5,$6,$7,$8,$9,$2,$3,0*
0 Add four circle primitives for the rounded corners*
1,1,$1+$1,$2,$3*
1,1,$1+$1,$4,$5*
1,1,$1+$1,$6,$7*
1,1,$1+$1,$8,$9*
0 Add four rect primitives between the rounded corners*
20,1,$1+$1,$2,$3,$4,$5,0*
20,1,$1+$1,$4,$5,$6,$7,0*
20,1,$1+$1,$6,$7,$8,$9,0*
20,1,$1+$1,$8,$9,$2,$3,0*%
G04 Aperture macros list end*
%ADD10RoundRect,0.250000X0.337500X0.475000X-0.337500X0.475000X-0.337500X-0.475000X0.337500X-0.475000X0*%
%ADD11R,2.500000X1.800000*%
%ADD12RoundRect,0.250000X-0.450000X0.350000X-0.450000X-0.350000X0.450000X-0.350000X0.450000X0.350000X0*%
%ADD13RoundRect,0.250000X-0.450000X0.325000X-0.450000X-0.325000X0.450000X-0.325000X0.450000X0.325000X0*%
%ADD14R,3.800000X4.800000*%
%ADD15RoundRect,0.250000X0.450000X-0.350000X0.450000X0.350000X-0.450000X0.350000X-0.450000X-0.350000X0*%
%ADD16RoundRect,0.250000X-0.350000X-0.450000X0.350000X-0.450000X0.350000X0.450000X-0.350000X0.450000X0*%
%ADD17RoundRect,0.250000X-0.475000X0.337500X-0.475000X-0.337500X0.475000X-0.337500X0.475000X0.337500X0*%
%ADD18R,4.550000X5.250000*%
%ADD19R,4.600000X1.100000*%
%ADD20RoundRect,0.250000X0.475000X-0.337500X0.475000X0.337500X-0.475000X0.337500X-0.475000X-0.337500X0*%
%ADD21RoundRect,0.250000X0.350000X0.450000X-0.350000X0.450000X-0.350000X-0.450000X0.350000X-0.450000X0*%
%ADD22R,4.800000X3.800000*%
%ADD23RoundRect,0.250000X-0.325000X-0.450000X0.325000X-0.450000X0.325000X0.450000X-0.325000X0.450000X0*%
%ADD24R,5.250000X4.550000*%
%ADD25R,1.100000X4.600000*%
%ADD26R,1.800000X2.500000*%
%ADD27RoundRect,0.250000X0.325000X0.450000X-0.325000X0.450000X-0.325000X-0.450000X0.325000X-0.450000X0*%
G04 APERTURE END LIST*
D10*
%TO.C,C10*%
X44000000Y63000000D03*
X41925000Y63000000D03*
%TD*%
D11*
%TO.C,D2*%
X62500000Y58000000D03*
X66500000Y58000000D03*
%TD*%
D12*
%TO.C,R4*%
X11000000Y65000000D03*
X11000000Y63000000D03*
%TD*%
D13*
%TO.C,D5*%
X56000000Y44025000D03*
X56000000Y41975000D03*
%TD*%
D14*
%TO.C,L2*%
X53280177Y8000000D03*
X43380177Y8000000D03*
%TD*%
D15*
%TO.C,R3*%
X56000000Y37000000D03*
X56000000Y39000000D03*
%TD*%
D16*
%TO.C,R2*%
X48955177Y21000000D03*
X50955177Y21000000D03*
%TD*%
D17*
%TO.C,C8*%
X56055000Y30075000D03*
X56055000Y28000000D03*
%TD*%
D18*
%TO.C,U2*%
X74055177Y4825000D03*
X78905177Y4825000D03*
X78905177Y10375000D03*
X74055177Y10375000D03*
D19*
X67330177Y11000000D03*
X67330177Y9300000D03*
X67330177Y7600000D03*
X67330177Y5900000D03*
X67330177Y4200000D03*
%TD*%
D20*
%TO.C,C3*%
X51000000Y65962500D03*
X51000000Y68037500D03*
%TD*%
D21*
%TO.C,R1*%
X68000000Y20900000D03*
X66000000Y20900000D03*
%TD*%
D22*
%TO.C,L1*%
X65480177Y52950000D03*
X65480177Y43050000D03*
%TD*%
D23*
%TO.C,D1*%
X60575000Y21000000D03*
X62625000Y21000000D03*
%TD*%
D10*
%TO.C,C4*%
X68000000Y17000000D03*
X65925000Y17000000D03*
%TD*%
D24*
%TO.C,U1*%
X61000000Y75000000D03*
X55450000Y70150000D03*
X61000000Y70150000D03*
X55450000Y75000000D03*
D25*
X54825000Y63425000D03*
X56525000Y63425000D03*
X58225000Y63425000D03*
X59925000Y63425000D03*
X61625000Y63425000D03*
%TD*%
D17*
%TO.C,C9*%
X38669823Y9625000D03*
X38669823Y7550000D03*
%TD*%
D26*
%TO.C,D3*%
X59330177Y8000000D03*
X59330177Y4000000D03*
%TD*%
D27*
%TO.C,D4*%
X57005177Y21000000D03*
X54955177Y21000000D03*
%TD*%
M02*
