%TF.GenerationSoftware,KiCad,Pcbnew,(6.0.7)*%
%TF.CreationDate,2023-04-18T19:04:57+08:00*%
%TF.ProjectId,stepper_with_DRV8825_controller_board_V3,73746570-7065-4725-9f77-6974685f4452,rev?*%
%TF.SameCoordinates,PX4a62f80PY848f8c0*%
%TF.FileFunction,Soldermask,Top*%
%TF.FilePolarity,Negative*%
%FSLAX46Y46*%
G04 Gerber Fmt 4.6, Leading zero omitted, Abs format (unit mm)*
G04 Created by KiCad (PCBNEW (6.0.7)) date 2023-04-18 19:04:57*
%MOMM*%
%LPD*%
G01*
G04 APERTURE LIST*
G04 Aperture macros list*
%AMRoundRect*
0 Rectangle with rounded corners*
0 $1 Rounding radius*
0 $2 $3 $4 $5 $6 $7 $8 $9 X,Y pos of 4 corners*
0 Add a 4 corners polygon primitive as box body*
4,1,4,$2,$3,$4,$5,$6,$7,$8,$9,$2,$3,0*
0 Add four circle primitives for the rounded corners*
1,1,$1+$1,$2,$3*
1,1,$1+$1,$4,$5*
1,1,$1+$1,$6,$7*
1,1,$1+$1,$8,$9*
0 Add four rect primitives between the rounded corners*
20,1,$1+$1,$2,$3,$4,$5,0*
20,1,$1+$1,$4,$5,$6,$7,0*
20,1,$1+$1,$6,$7,$8,$9,0*
20,1,$1+$1,$8,$9,$2,$3,0*%
G04 Aperture macros list end*
%ADD10RoundRect,0.250000X0.337500X0.475000X-0.337500X0.475000X-0.337500X-0.475000X0.337500X-0.475000X0*%
%ADD11R,2.500000X1.800000*%
%ADD12R,1.600000X1.600000*%
%ADD13C,1.600000*%
%ADD14R,2.000000X2.000000*%
%ADD15C,2.000000*%
%ADD16C,1.590000*%
%ADD17RoundRect,0.250000X-0.450000X0.350000X-0.450000X-0.350000X0.450000X-0.350000X0.450000X0.350000X0*%
%ADD18RoundRect,0.250000X-0.350000X-0.625000X0.350000X-0.625000X0.350000X0.625000X-0.350000X0.625000X0*%
%ADD19O,1.200000X1.750000*%
%ADD20RoundRect,0.250000X-0.450000X0.325000X-0.450000X-0.325000X0.450000X-0.325000X0.450000X0.325000X0*%
%ADD21RoundRect,0.250000X-0.625000X0.350000X-0.625000X-0.350000X0.625000X-0.350000X0.625000X0.350000X0*%
%ADD22O,1.750000X1.200000*%
%ADD23O,1.600000X1.600000*%
%ADD24O,4.000000X2.000000*%
%ADD25O,2.350000X4.700000*%
%ADD26RoundRect,0.250000X0.725000X-0.600000X0.725000X0.600000X-0.725000X0.600000X-0.725000X-0.600000X0*%
%ADD27O,1.950000X1.700000*%
%ADD28RoundRect,0.250000X0.750000X-0.600000X0.750000X0.600000X-0.750000X0.600000X-0.750000X-0.600000X0*%
%ADD29O,2.000000X1.700000*%
%ADD30R,3.800000X4.800000*%
%ADD31RoundRect,0.250000X0.450000X-0.350000X0.450000X0.350000X-0.450000X0.350000X-0.450000X-0.350000X0*%
%ADD32RoundRect,0.250000X-0.350000X-0.450000X0.350000X-0.450000X0.350000X0.450000X-0.350000X0.450000X0*%
%ADD33RoundRect,0.250000X-0.475000X0.337500X-0.475000X-0.337500X0.475000X-0.337500X0.475000X0.337500X0*%
%ADD34R,1.700000X1.700000*%
%ADD35O,1.700000X1.700000*%
%ADD36R,4.600000X1.100000*%
%ADD37R,9.400000X10.800000*%
%ADD38RoundRect,0.250000X-0.725000X0.600000X-0.725000X-0.600000X0.725000X-0.600000X0.725000X0.600000X0*%
%ADD39RoundRect,0.250000X0.475000X-0.337500X0.475000X0.337500X-0.475000X0.337500X-0.475000X-0.337500X0*%
%ADD40RoundRect,0.250000X0.350000X0.450000X-0.350000X0.450000X-0.350000X-0.450000X0.350000X-0.450000X0*%
%ADD41R,4.800000X3.800000*%
%ADD42RoundRect,0.250000X-0.325000X-0.450000X0.325000X-0.450000X0.325000X0.450000X-0.325000X0.450000X0*%
%ADD43R,1.100000X4.600000*%
%ADD44R,10.800000X9.400000*%
%ADD45R,2.000000X1.905000*%
%ADD46O,2.000000X1.905000*%
%ADD47RoundRect,0.250000X0.350000X0.625000X-0.350000X0.625000X-0.350000X-0.625000X0.350000X-0.625000X0*%
%ADD48R,1.800000X2.500000*%
%ADD49RoundRect,0.250000X0.325000X0.450000X-0.325000X0.450000X-0.325000X-0.450000X0.325000X-0.450000X0*%
G04 APERTURE END LIST*
D10*
%TO.C,C10*%
X44000000Y63000000D03*
X41925000Y63000000D03*
%TD*%
D11*
%TO.C,D2*%
X62500000Y58000000D03*
X66500000Y58000000D03*
%TD*%
D12*
%TO.C,C15*%
X128500000Y35534887D03*
D13*
X128500000Y38034887D03*
%TD*%
D14*
%TO.C,C6*%
X65000000Y35000000D03*
D15*
X70000000Y35000000D03*
%TD*%
D16*
%TO.C,F1*%
X83700000Y77550000D03*
X82300000Y72450000D03*
%TD*%
D17*
%TO.C,R4*%
X11000000Y65000000D03*
X11000000Y63000000D03*
%TD*%
D18*
%TO.C,J18*%
X15250000Y50700000D03*
D19*
X17250000Y50700000D03*
X19250000Y50700000D03*
%TD*%
D20*
%TO.C,D5*%
X56000000Y44025000D03*
X56000000Y41975000D03*
%TD*%
D12*
%TO.C,C12*%
X110500000Y53855112D03*
D13*
X110500000Y51355112D03*
%TD*%
D21*
%TO.C,J2*%
X42000000Y84000000D03*
D22*
X42000000Y82000000D03*
%TD*%
D14*
%TO.C,C7*%
X43367677Y21000000D03*
D15*
X38367677Y21000000D03*
%TD*%
D23*
%TO.C,A1*%
X43940000Y59760000D03*
X41400000Y59760000D03*
X38860000Y59760000D03*
X36320000Y59760000D03*
X33780000Y59760000D03*
X31240000Y59760000D03*
X28700000Y59760000D03*
X26160000Y59760000D03*
X23620000Y59760000D03*
X21080000Y59760000D03*
X18540000Y59760000D03*
X16000000Y59760000D03*
X13460000Y59760000D03*
X10920000Y59760000D03*
X8380000Y59760000D03*
X8380000Y75000000D03*
X10920000Y75000000D03*
X13460000Y75000000D03*
X16000000Y75000000D03*
X18540000Y75000000D03*
X21080000Y75000000D03*
X23620000Y75000000D03*
X26160000Y75000000D03*
X28700000Y75000000D03*
X31240000Y75000000D03*
X33780000Y75000000D03*
X36320000Y75000000D03*
X38860000Y75000000D03*
X41400000Y75000000D03*
D12*
X43940000Y75000000D03*
%TD*%
%TO.C,A7*%
X128660000Y20890000D03*
D23*
X128660000Y18350000D03*
X128660000Y15810000D03*
X128660000Y13270000D03*
X128660000Y10730000D03*
X128660000Y8190000D03*
X128660000Y5650000D03*
X128660000Y3110000D03*
X141360000Y3110000D03*
X141360000Y5650000D03*
X141360000Y8190000D03*
X141360000Y10730000D03*
X141360000Y13270000D03*
X141360000Y15810000D03*
X141360000Y18350000D03*
X141360000Y20890000D03*
%TD*%
D24*
%TO.C,J1*%
X75000000Y75500000D03*
D25*
X70200000Y78000000D03*
D24*
X75000000Y81500000D03*
%TD*%
D12*
%TO.C,C13*%
X104000000Y21850000D03*
D13*
X104000000Y19350000D03*
%TD*%
D18*
%TO.C,J13*%
X12000000Y6100000D03*
D19*
X14000000Y6100000D03*
X16000000Y6100000D03*
X18000000Y6100000D03*
%TD*%
D18*
%TO.C,J6*%
X27000000Y5550000D03*
D19*
X29000000Y5550000D03*
X31000000Y5550000D03*
X33000000Y5550000D03*
%TD*%
D26*
%TO.C,J15*%
X111775000Y62950000D03*
D27*
X111775000Y65450000D03*
X111775000Y67950000D03*
X111775000Y70450000D03*
%TD*%
D12*
%TO.C,C14*%
X128000000Y60734887D03*
D13*
X128000000Y63234887D03*
%TD*%
D28*
%TO.C,J11*%
X48185000Y42005000D03*
D29*
X48185000Y44505000D03*
%TD*%
D30*
%TO.C,L2*%
X53280177Y8000000D03*
X43380177Y8000000D03*
%TD*%
D14*
%TO.C,C1*%
X81000000Y47000000D03*
D15*
X76000000Y47000000D03*
%TD*%
D18*
%TO.C,J8*%
X20000000Y83000000D03*
D19*
X22000000Y83000000D03*
X24000000Y83000000D03*
X26000000Y83000000D03*
%TD*%
D14*
%TO.C,C5*%
X78000000Y62000000D03*
D15*
X78000000Y57000000D03*
%TD*%
D12*
%TO.C,A3*%
X104340000Y36110000D03*
D23*
X104340000Y38650000D03*
X104340000Y41190000D03*
X104340000Y43730000D03*
X104340000Y46270000D03*
X104340000Y48810000D03*
X104340000Y51350000D03*
X104340000Y53890000D03*
X91640000Y53890000D03*
X91640000Y51350000D03*
X91640000Y48810000D03*
X91640000Y46270000D03*
X91640000Y43730000D03*
X91640000Y41190000D03*
X91640000Y38650000D03*
X91640000Y36110000D03*
%TD*%
D31*
%TO.C,R3*%
X56000000Y37000000D03*
X56000000Y39000000D03*
%TD*%
D32*
%TO.C,R2*%
X48955177Y21000000D03*
X50955177Y21000000D03*
%TD*%
D33*
%TO.C,C8*%
X56055000Y30075000D03*
X56055000Y28000000D03*
%TD*%
D18*
%TO.C,J19*%
X25500000Y50700000D03*
D19*
X27500000Y50700000D03*
X29500000Y50700000D03*
%TD*%
D34*
%TO.C,J10*%
X114580000Y86500000D03*
D35*
X114580000Y83960000D03*
X112040000Y86500000D03*
X112040000Y83960000D03*
X109500000Y86500000D03*
X109500000Y83960000D03*
%TD*%
D36*
%TO.C,U2*%
X67330177Y11000000D03*
X67330177Y9300000D03*
D37*
X76480177Y7600000D03*
D36*
X67330177Y7600000D03*
X67330177Y5900000D03*
X67330177Y4200000D03*
%TD*%
D18*
%TO.C,J5*%
X27000000Y14750000D03*
D19*
X29000000Y14750000D03*
X31000000Y14750000D03*
X33000000Y14750000D03*
%TD*%
D38*
%TO.C,J21*%
X125915000Y76490000D03*
D27*
X125915000Y73990000D03*
X125915000Y71490000D03*
X125915000Y68990000D03*
%TD*%
D39*
%TO.C,C3*%
X51000000Y65962500D03*
X51000000Y68037500D03*
%TD*%
D40*
%TO.C,R1*%
X68000000Y20900000D03*
X66000000Y20900000D03*
%TD*%
D38*
%TO.C,J25*%
X125790000Y51040000D03*
D27*
X125790000Y48540000D03*
X125790000Y46040000D03*
X125790000Y43540000D03*
%TD*%
D41*
%TO.C,L1*%
X65480177Y52950000D03*
X65480177Y43050000D03*
%TD*%
D38*
%TO.C,J26*%
X121000000Y18295113D03*
D27*
X121000000Y15795113D03*
X121000000Y13295113D03*
X121000000Y10795113D03*
%TD*%
D14*
%TO.C,C2*%
X73330177Y21000000D03*
D15*
X78330177Y21000000D03*
%TD*%
D42*
%TO.C,D1*%
X60575000Y21000000D03*
X62625000Y21000000D03*
%TD*%
D18*
%TO.C,J12*%
X12000000Y14800000D03*
D19*
X14000000Y14800000D03*
X16000000Y14800000D03*
X18000000Y14800000D03*
%TD*%
D26*
%TO.C,J16*%
X112075000Y38600000D03*
D27*
X112075000Y41100000D03*
X112075000Y43600000D03*
X112075000Y46100000D03*
%TD*%
D34*
%TO.C,J14*%
X52465000Y32675000D03*
D35*
X52465000Y30135000D03*
X49925000Y32675000D03*
X49925000Y30135000D03*
X47385000Y32675000D03*
X47385000Y30135000D03*
X44845000Y32675000D03*
X44845000Y30135000D03*
X42305000Y32675000D03*
X42305000Y30135000D03*
X39765000Y32675000D03*
X39765000Y30135000D03*
X37225000Y32675000D03*
X37225000Y30135000D03*
X34685000Y32675000D03*
X34685000Y30135000D03*
X32145000Y32675000D03*
X32145000Y30135000D03*
X29605000Y32675000D03*
X29605000Y30135000D03*
X27065000Y32675000D03*
X27065000Y30135000D03*
X24525000Y32675000D03*
X24525000Y30135000D03*
X21985000Y32675000D03*
X21985000Y30135000D03*
X19445000Y32675000D03*
X19445000Y30135000D03*
X16905000Y32675000D03*
X16905000Y30135000D03*
X14365000Y32675000D03*
X14365000Y30135000D03*
X11825000Y32675000D03*
X11825000Y30135000D03*
X9285000Y32675000D03*
X9285000Y30135000D03*
X6745000Y32675000D03*
X6745000Y30135000D03*
X4205000Y32675000D03*
X4205000Y30135000D03*
%TD*%
D10*
%TO.C,C4*%
X68000000Y17000000D03*
X65925000Y17000000D03*
%TD*%
D43*
%TO.C,U1*%
X54825000Y63425000D03*
X56525000Y63425000D03*
X58225000Y63425000D03*
D44*
X58225000Y72575000D03*
D43*
X59925000Y63425000D03*
X61625000Y63425000D03*
%TD*%
D21*
%TO.C,J3*%
X50600000Y84100000D03*
D22*
X50600000Y82100000D03*
%TD*%
D18*
%TO.C,J17*%
X5250000Y50700000D03*
D19*
X7250000Y50700000D03*
X9250000Y50700000D03*
%TD*%
D12*
%TO.C,C11*%
X111000000Y79000000D03*
D13*
X111000000Y76500000D03*
%TD*%
D45*
%TO.C,Q1*%
X40000000Y40920000D03*
D46*
X40000000Y43460000D03*
X40000000Y46000000D03*
%TD*%
D18*
%TO.C,J22*%
X5000000Y41250000D03*
D19*
X7000000Y41250000D03*
X9000000Y41250000D03*
%TD*%
D47*
%TO.C,J7*%
X34200000Y81950000D03*
D19*
X32200000Y81950000D03*
%TD*%
D33*
%TO.C,C9*%
X38669823Y9625000D03*
X38669823Y7550000D03*
%TD*%
D12*
%TO.C,A6*%
X134075000Y53230000D03*
D23*
X134075000Y50690000D03*
X134075000Y48150000D03*
X134075000Y45610000D03*
X134075000Y43070000D03*
X134075000Y40530000D03*
X134075000Y37990000D03*
X134075000Y35450000D03*
X146775000Y35450000D03*
X146775000Y37990000D03*
X146775000Y40530000D03*
X146775000Y43070000D03*
X146775000Y45610000D03*
X146775000Y48150000D03*
X146775000Y50690000D03*
X146775000Y53230000D03*
%TD*%
D18*
%TO.C,J24*%
X25500000Y41250000D03*
D19*
X27500000Y41250000D03*
X29500000Y41250000D03*
%TD*%
D48*
%TO.C,D3*%
X59330177Y8000000D03*
X59330177Y4000000D03*
%TD*%
D12*
%TO.C,A5*%
X133875000Y78530000D03*
D23*
X133875000Y75990000D03*
X133875000Y73450000D03*
X133875000Y70910000D03*
X133875000Y68370000D03*
X133875000Y65830000D03*
X133875000Y63290000D03*
X133875000Y60750000D03*
X146575000Y60750000D03*
X146575000Y63290000D03*
X146575000Y65830000D03*
X146575000Y68370000D03*
X146575000Y70910000D03*
X146575000Y73450000D03*
X146575000Y75990000D03*
X146575000Y78530000D03*
%TD*%
D12*
%TO.C,A2*%
X104340000Y61110000D03*
D23*
X104340000Y63650000D03*
X104340000Y66190000D03*
X104340000Y68730000D03*
X104340000Y71270000D03*
X104340000Y73810000D03*
X104340000Y76350000D03*
X104340000Y78890000D03*
X91640000Y78890000D03*
X91640000Y76350000D03*
X91640000Y73810000D03*
X91640000Y71270000D03*
X91640000Y68730000D03*
X91640000Y66190000D03*
X91640000Y63650000D03*
X91640000Y61110000D03*
%TD*%
D18*
%TO.C,J23*%
X15250000Y41250000D03*
D19*
X17250000Y41250000D03*
X19250000Y41250000D03*
%TD*%
D34*
%TO.C,J9*%
X126380000Y86500000D03*
D35*
X126380000Y83960000D03*
X123840000Y86500000D03*
X123840000Y83960000D03*
X121300000Y86500000D03*
X121300000Y83960000D03*
%TD*%
D49*
%TO.C,D4*%
X57005177Y21000000D03*
X54955177Y21000000D03*
%TD*%
D12*
%TO.C,A4*%
X98585000Y4060000D03*
D23*
X98585000Y6600000D03*
X98585000Y9140000D03*
X98585000Y11680000D03*
X98585000Y14220000D03*
X98585000Y16760000D03*
X98585000Y19300000D03*
X98585000Y21840000D03*
X85885000Y21840000D03*
X85885000Y19300000D03*
X85885000Y16760000D03*
X85885000Y14220000D03*
X85885000Y11680000D03*
X85885000Y9140000D03*
X85885000Y6600000D03*
X85885000Y4060000D03*
%TD*%
D21*
%TO.C,J4*%
X59550000Y84100000D03*
D22*
X59550000Y82100000D03*
%TD*%
D12*
%TO.C,C16*%
X123000000Y3184887D03*
D13*
X123000000Y5684887D03*
%TD*%
D26*
%TO.C,J20*%
X106245000Y5150000D03*
D27*
X106245000Y7650000D03*
X106245000Y10150000D03*
X106245000Y12650000D03*
%TD*%
M02*
