M48
; DRILL file {KiCad (6.0.7)} date Tue Apr 18 19:05:01 2023
; FORMAT={-:-/ absolute / metric / decimal}
; #@! TF.CreationDate,2023-04-18T19:05:01+08:00
; #@! TF.GenerationSoftware,Kicad,Pcbnew,(6.0.7)
; #@! TF.FileFunction,Plated,1,2,PTH
FMAT,2
METRIC
; #@! TA.AperFunction,Plated,PTH,ViaDrill
T1C0.400
; #@! TA.AperFunction,Plated,PTH,ComponentDrill
T2C0.750
; #@! TA.AperFunction,Plated,PTH,ComponentDrill
T3C0.800
; #@! TA.AperFunction,Plated,PTH,ComponentDrill
T4C0.950
; #@! TA.AperFunction,Plated,PTH,ComponentDrill
T5C1.000
; #@! TA.AperFunction,Plated,PTH,ComponentDrill
T6C1.060
; #@! TA.AperFunction,Plated,PTH,ComponentDrill
T7C1.100
%
G90
G05
T1
X1.0Y67.75
X4.75Y69.25
X7.75Y72.25
X12.25Y53.25
X22.25Y54.5
X27.25Y34.75
X30.75Y68.0
X31.5Y45.75
X34.75Y72.054
X34.75Y71.0
X36.5Y69.75
X36.75Y7.5
X41.0Y66.75
X45.5Y51.0
X45.5Y49.75
X49.5Y18.0
X51.75Y70.25
X56.0Y46.0
X56.25Y26.5
X56.25Y23.0
X58.75Y29.25
X58.75Y23.0
X59.75Y59.75
X59.75Y37.0
X60.25Y30.5
X60.75Y31.5
X60.75Y19.5
X61.75Y4.0
X63.0Y7.0
X63.75Y4.0
X64.0Y17.0
X66.5Y60.5
X73.975Y36.329
X74.0Y35.25
X81.719Y26.25
X82.5Y25.25
X83.5Y24.5
X90.0Y82.5
X94.5Y36.25
X95.25Y53.0
X95.5Y35.5
X96.25Y75.0
X96.5Y34.75
X97.5Y80.0
X97.5Y73.25
X98.25Y44.25
X98.28Y68.25
X105.225Y87.712
X106.25Y88.219
X110.75Y82.5
X117.75Y80.75
X125.75Y80.25
X128.0Y81.219
X128.688Y87.859
X128.75Y82.0
X129.25Y88.75
X130.75Y29.5
X130.75Y28.446
X138.25Y58.25
X138.25Y57.0
X139.0Y27.5
X140.5Y70.0
X140.5Y58.25
X141.0Y79.5
X142.0Y85.25
X142.0Y80.25
X142.0Y74.0
X142.25Y56.75
X142.25Y49.5
X142.25Y46.0
X142.75Y81.219
X143.03Y63.0
X143.25Y26.0
X143.5Y84.0
X143.5Y82.0
X144.25Y49.5
X144.25Y31.0
X144.25Y27.0
X147.5Y84.0
X147.715Y80.986
X147.75Y29.5
X148.0Y82.0
X148.469Y62.5
X148.469Y38.77
X148.469Y37.209
X148.5Y66.0
X148.75Y27.0
T2
X5.0Y41.25
X5.25Y50.7
X7.0Y41.25
X7.25Y50.7
X9.0Y41.25
X9.25Y50.7
X12.0Y14.8
X12.0Y6.1
X14.0Y14.8
X14.0Y6.1
X15.25Y50.7
X15.25Y41.25
X16.0Y14.8
X16.0Y6.1
X17.25Y50.7
X17.25Y41.25
X18.0Y14.8
X18.0Y6.1
X19.25Y50.7
X19.25Y41.25
X20.0Y83.0
X22.0Y83.0
X24.0Y83.0
X25.5Y50.7
X25.5Y41.25
X26.0Y83.0
X27.0Y14.75
X27.0Y5.55
X27.5Y50.7
X27.5Y41.25
X29.0Y14.75
X29.0Y5.55
X29.5Y50.7
X29.5Y41.25
X31.0Y14.75
X31.0Y5.55
X32.2Y81.95
X33.0Y14.75
X33.0Y5.55
X34.2Y81.95
X42.0Y84.0
X42.0Y82.0
X50.6Y84.1
X50.6Y82.1
X59.55Y84.1
X59.55Y82.1
T3
X85.885Y21.84
X85.885Y19.3
X85.885Y16.76
X85.885Y14.22
X85.885Y11.68
X85.885Y9.14
X85.885Y6.6
X85.885Y4.06
X91.64Y78.89
X91.64Y76.35
X91.64Y73.81
X91.64Y71.27
X91.64Y68.73
X91.64Y66.19
X91.64Y63.65
X91.64Y61.11
X91.64Y53.89
X91.64Y51.35
X91.64Y48.81
X91.64Y46.27
X91.64Y43.73
X91.64Y41.19
X91.64Y38.65
X91.64Y36.11
X98.585Y21.84
X98.585Y19.3
X98.585Y16.76
X98.585Y14.22
X98.585Y11.68
X98.585Y9.14
X98.585Y6.6
X98.585Y4.06
X104.0Y21.85
X104.0Y19.35
X104.34Y78.89
X104.34Y76.35
X104.34Y73.81
X104.34Y71.27
X104.34Y68.73
X104.34Y66.19
X104.34Y63.65
X104.34Y61.11
X104.34Y53.89
X104.34Y51.35
X104.34Y48.81
X104.34Y46.27
X104.34Y43.73
X104.34Y41.19
X104.34Y38.65
X104.34Y36.11
X110.5Y53.855
X110.5Y51.355
X111.0Y79.0
X111.0Y76.5
X123.0Y5.685
X123.0Y3.185
X128.0Y63.235
X128.0Y60.735
X128.5Y38.035
X128.5Y35.535
X128.66Y20.89
X128.66Y18.35
X128.66Y15.81
X128.66Y13.27
X128.66Y10.73
X128.66Y8.19
X128.66Y5.65
X128.66Y3.11
X133.875Y78.53
X133.875Y75.99
X133.875Y73.45
X133.875Y70.91
X133.875Y68.37
X133.875Y65.83
X133.875Y63.29
X133.875Y60.75
X134.075Y53.23
X134.075Y50.69
X134.075Y48.15
X134.075Y45.61
X134.075Y43.07
X134.075Y40.53
X134.075Y37.99
X134.075Y35.45
X141.36Y20.89
X141.36Y18.35
X141.36Y15.81
X141.36Y13.27
X141.36Y10.73
X141.36Y8.19
X141.36Y5.65
X141.36Y3.11
X146.575Y78.53
X146.575Y75.99
X146.575Y73.45
X146.575Y70.91
X146.575Y68.37
X146.575Y65.83
X146.575Y63.29
X146.575Y60.75
X146.775Y53.23
X146.775Y50.69
X146.775Y48.15
X146.775Y45.61
X146.775Y43.07
X146.775Y40.53
X146.775Y37.99
X146.775Y35.45
T4
X106.245Y12.65
X106.245Y10.15
X106.245Y7.65
X106.245Y5.15
X111.775Y70.45
X111.775Y67.95
X111.775Y65.45
X111.775Y62.95
X112.075Y46.1
X112.075Y43.6
X112.075Y41.1
X112.075Y38.6
X121.0Y18.295
X121.0Y15.795
X121.0Y13.295
X121.0Y10.795
X125.79Y51.04
X125.79Y48.54
X125.79Y46.04
X125.79Y43.54
X125.915Y76.49
X125.915Y73.99
X125.915Y71.49
X125.915Y68.99
T5
X4.205Y32.675
X4.205Y30.135
X6.745Y32.675
X6.745Y30.135
X8.38Y75.0
X8.38Y59.76
X9.285Y32.675
X9.285Y30.135
X10.92Y75.0
X10.92Y59.76
X11.825Y32.675
X11.825Y30.135
X13.46Y75.0
X13.46Y59.76
X14.365Y32.675
X14.365Y30.135
X16.0Y75.0
X16.0Y59.76
X16.905Y32.675
X16.905Y30.135
X18.54Y75.0
X18.54Y59.76
X19.445Y32.675
X19.445Y30.135
X21.08Y75.0
X21.08Y59.76
X21.985Y32.675
X21.985Y30.135
X23.62Y75.0
X23.62Y59.76
X24.525Y32.675
X24.525Y30.135
X26.16Y75.0
X26.16Y59.76
X27.065Y32.675
X27.065Y30.135
X28.7Y75.0
X28.7Y59.76
X29.605Y32.675
X29.605Y30.135
X31.24Y75.0
X31.24Y59.76
X32.145Y32.675
X32.145Y30.135
X33.78Y75.0
X33.78Y59.76
X34.685Y32.675
X34.685Y30.135
X36.32Y75.0
X36.32Y59.76
X37.225Y32.675
X37.225Y30.135
X38.368Y21.0
X38.86Y75.0
X38.86Y59.76
X39.765Y32.675
X39.765Y30.135
X41.4Y75.0
X41.4Y59.76
X42.305Y32.675
X42.305Y30.135
X43.368Y21.0
X43.94Y75.0
X43.94Y59.76
X44.845Y32.675
X44.845Y30.135
X47.385Y32.675
X47.385Y30.135
X48.185Y44.505
X48.185Y42.005
X49.925Y32.675
X49.925Y30.135
X52.465Y32.675
X52.465Y30.135
X65.0Y35.0
X70.0Y35.0
X73.33Y21.0
X76.0Y47.0
X78.0Y62.0
X78.0Y57.0
X78.33Y21.0
X81.0Y47.0
X109.5Y86.5
X109.5Y83.96
X112.04Y86.5
X112.04Y83.96
X114.58Y86.5
X114.58Y83.96
X121.3Y86.5
X121.3Y83.96
X123.84Y86.5
X123.84Y83.96
X126.38Y86.5
X126.38Y83.96
T6
X82.3Y72.45
X83.7Y77.55
T7
X40.0Y46.0
X40.0Y43.46
X40.0Y40.92
T3
G00X70.2Y79.35
M15
G01X70.2Y76.65
M16
G05
G00X76.1Y81.5
M15
G01X73.9Y81.5
M16
G05
G00X76.1Y75.5
M15
G01X73.9Y75.5
M16
G05
T0
M30
